# MagicaVoxel @ Ephtracy

# group
g icone leaderboards

# material
mtllib icone leaderboards.mtl
usemtl palette

# normals
vn -1 0 0
vn 1 0 0
vn 0 0 1
vn 0 0 -1
vn 0 -1 0
vn 0 1 0

# texcoords
vt 0.916016 0.5
vt 0.986328 0.5
vt 0.990234 0.5

# verts
v -14 2 0.5
v -14 2 -0.5
v -14 15 0.5
v -14 15 -0.5
v -5 15 0.5
v -5 15 -0.5
v -5 23 0.5
v -5 23 -0.5
v 6 13 0.5
v 6 13 -0.5
v 6 23 0.5
v 6 23 -0.5
v 14 2 0.5
v 14 2 -0.5
v 14 13 0.5
v 14 13 -0.5
v -14 2 0.5
v -14 15 0.5
v -13 3 0.5
v -13 14 0.5
v -12 6 0.5
v -12 13 0.5
v -11 7 0.5
v -11 12 0.5
v -10 10 0.5
v -10 11 0.5
v -9 8 0.5
v -9 10 0.5
v -8 9 0.5
v -8 11 0.5
v -7 8 0.5
v -7 9 0.5
v -6 7 0.5
v -6 12 0.5
v -5 6 0.5
v -5 13 0.5
v -5 15 0.5
v -5 23 0.5
v -4 14 0.5
v -4 22 0.5
v -3 14 0.5
v -3 21 0.5
v -2 15 0.5
v -2 20 0.5
v -1 16 0.5
v -1 17 0.5
v -1 18 0.5
v -1 19 0.5
v 0 17 0.5
v 0 18 0.5
v 1 17 0.5
v 1 19 0.5
v 2 16 0.5
v 2 17 0.5
v 3 15 0.5
v 3 20 0.5
v 4 14 0.5
v 4 21 0.5
v 5 4 0.5
v 5 11 0.5
v 5 12 0.5
v 5 22 0.5
v 6 5 0.5
v 6 10 0.5
v 6 13 0.5
v 6 23 0.5
v 7 6 0.5
v 7 7 0.5
v 7 8 0.5
v 7 9 0.5
v 8 7 0.5
v 8 8 0.5
v 10 6 0.5
v 10 9 0.5
v 11 5 0.5
v 11 10 0.5
v 12 4 0.5
v 12 11 0.5
v 13 3 0.5
v 13 12 0.5
v 14 2 0.5
v 14 13 0.5
v -14 2 -0.5
v -14 15 -0.5
v -13 3 -0.5
v -13 14 -0.5
v -12 6 -0.5
v -12 13 -0.5
v -11 7 -0.5
v -11 12 -0.5
v -10 10 -0.5
v -10 11 -0.5
v -9 8 -0.5
v -9 10 -0.5
v -8 9 -0.5
v -8 11 -0.5
v -7 8 -0.5
v -7 9 -0.5
v -6 7 -0.5
v -6 12 -0.5
v -5 6 -0.5
v -5 13 -0.5
v -5 15 -0.5
v -5 23 -0.5
v -4 14 -0.5
v -4 22 -0.5
v -3 14 -0.5
v -3 21 -0.5
v -2 15 -0.5
v -2 20 -0.5
v -1 16 -0.5
v -1 17 -0.5
v -1 18 -0.5
v -1 19 -0.5
v 0 17 -0.5
v 0 18 -0.5
v 1 17 -0.5
v 1 19 -0.5
v 2 16 -0.5
v 2 17 -0.5
v 3 15 -0.5
v 3 20 -0.5
v 4 14 -0.5
v 4 21 -0.5
v 5 4 -0.5
v 5 11 -0.5
v 5 12 -0.5
v 5 22 -0.5
v 6 5 -0.5
v 6 10 -0.5
v 6 13 -0.5
v 6 23 -0.5
v 7 6 -0.5
v 7 7 -0.5
v 7 8 -0.5
v 7 9 -0.5
v 8 7 -0.5
v 8 8 -0.5
v 10 6 -0.5
v 10 9 -0.5
v 11 5 -0.5
v 11 10 -0.5
v 12 4 -0.5
v 12 11 -0.5
v 13 3 -0.5
v 13 12 -0.5
v 14 2 -0.5
v 14 13 -0.5
v -14 2 0.5
v 14 2 0.5
v -14 2 -0.5
v 14 2 -0.5
v 6 13 0.5
v 14 13 0.5
v 6 13 -0.5
v 14 13 -0.5
v -14 15 0.5
v -5 15 0.5
v -14 15 -0.5
v -5 15 -0.5
v -5 23 0.5
v 6 23 0.5
v -5 23 -0.5
v 6 23 -0.5

# faces
f 3/3/1 2/3/1 1/3/1
f 4/3/1 2/3/1 3/3/1
f 7/3/1 6/3/1 5/3/1
f 8/3/1 6/3/1 7/3/1
f 9/3/2 10/3/2 11/3/2
f 11/3/2 10/3/2 12/3/2
f 13/3/2 14/3/2 15/3/2
f 15/3/2 14/3/2 16/3/2
f 19/3/3 18/3/3 17/3/3
f 20/3/3 18/3/3 19/3/3
f 21/2/3 20/2/3 19/2/3
f 22/2/3 20/2/3 21/2/3
f 23/3/3 22/3/3 21/3/3
f 24/3/3 22/3/3 23/3/3
f 25/2/3 24/2/3 23/2/3
f 26/2/3 24/2/3 25/2/3
f 27/2/3 25/2/3 23/2/3
f 28/1/3 26/1/3 25/1/3
f 28/2/3 25/2/3 27/2/3
f 29/1/3 28/1/3 27/1/3
f 30/2/3 24/2/3 26/2/3
f 30/1/3 28/1/3 29/1/3
f 30/1/3 26/1/3 28/1/3
f 31/1/3 29/1/3 27/1/3
f 31/2/3 27/2/3 23/2/3
f 32/2/3 30/2/3 29/2/3
f 32/1/3 29/1/3 31/1/3
f 33/3/3 23/3/3 21/3/3
f 33/2/3 31/2/3 23/2/3
f 33/2/3 32/2/3 31/2/3
f 34/2/3 30/2/3 32/2/3
f 34/2/3 32/2/3 33/2/3
f 34/3/3 22/3/3 24/3/3
f 34/2/3 24/2/3 30/2/3
f 35/2/3 21/2/3 19/2/3
f 35/3/3 33/3/3 21/3/3
f 35/3/3 34/3/3 33/3/3
f 36/3/3 22/3/3 34/3/3
f 36/3/3 34/3/3 35/3/3
f 36/2/3 20/2/3 22/2/3
f 37/3/3 18/3/3 20/3/3
f 39/2/3 20/2/3 36/2/3
f 39/3/3 38/3/3 37/3/3
f 39/3/3 37/3/3 20/3/3
f 39/2/3 36/2/3 35/2/3
f 40/3/3 38/3/3 39/3/3
f 41/2/3 39/2/3 35/2/3
f 41/2/3 40/2/3 39/2/3
f 42/2/3 40/2/3 41/2/3
f 43/3/3 42/3/3 41/3/3
f 44/3/3 42/3/3 43/3/3
f 45/2/3 44/2/3 43/2/3
f 46/2/3 44/2/3 45/2/3
f 47/2/3 44/2/3 46/2/3
f 48/2/3 44/2/3 47/2/3
f 49/1/3 46/1/3 45/1/3
f 49/2/3 47/2/3 46/2/3
f 50/1/3 48/1/3 47/1/3
f 50/2/3 47/2/3 49/2/3
f 51/1/3 49/1/3 45/1/3
f 51/1/3 50/1/3 49/1/3
f 52/2/3 44/2/3 48/2/3
f 52/1/3 50/1/3 51/1/3
f 52/1/3 48/1/3 50/1/3
f 53/2/3 45/2/3 43/2/3
f 53/1/3 51/1/3 45/1/3
f 54/2/3 52/2/3 51/2/3
f 54/1/3 51/1/3 53/1/3
f 55/3/3 43/3/3 41/3/3
f 55/2/3 53/2/3 43/2/3
f 55/2/3 54/2/3 53/2/3
f 56/2/3 52/2/3 54/2/3
f 56/2/3 54/2/3 55/2/3
f 56/3/3 42/3/3 44/3/3
f 56/2/3 44/2/3 52/2/3
f 57/2/3 41/2/3 35/2/3
f 57/3/3 55/3/3 41/3/3
f 57/3/3 56/3/3 55/3/3
f 58/3/3 42/3/3 56/3/3
f 58/3/3 56/3/3 57/3/3
f 58/2/3 40/2/3 42/2/3
f 59/2/3 35/2/3 19/2/3
f 59/2/3 57/2/3 35/2/3
f 59/2/3 58/2/3 57/2/3
f 60/2/3 58/2/3 59/2/3
f 61/2/3 58/2/3 60/2/3
f 62/2/3 40/2/3 58/2/3
f 62/2/3 58/2/3 61/2/3
f 62/3/3 38/3/3 40/3/3
f 63/3/3 60/3/3 59/3/3
f 64/3/3 60/3/3 63/3/3
f 65/3/3 62/3/3 61/3/3
f 66/3/3 38/3/3 62/3/3
f 66/3/3 62/3/3 65/3/3
f 67/2/3 64/2/3 63/2/3
f 68/2/3 64/2/3 67/2/3
f 69/2/3 64/2/3 68/2/3
f 70/2/3 64/2/3 69/2/3
f 71/1/3 68/1/3 67/1/3
f 71/2/3 69/2/3 68/2/3
f 72/1/3 70/1/3 69/1/3
f 72/2/3 69/2/3 71/2/3
f 73/2/3 67/2/3 63/2/3
f 73/1/3 71/1/3 67/1/3
f 73/1/3 72/1/3 71/1/3
f 74/1/3 70/1/3 72/1/3
f 74/1/3 72/1/3 73/1/3
f 74/2/3 64/2/3 70/2/3
f 75/3/3 63/3/3 59/3/3
f 75/2/3 73/2/3 63/2/3
f 75/2/3 74/2/3 73/2/3
f 76/3/3 60/3/3 64/3/3
f 76/2/3 74/2/3 75/2/3
f 76/2/3 64/2/3 74/2/3
f 77/2/3 59/2/3 19/2/3
f 77/3/3 75/3/3 59/3/3
f 77/3/3 76/3/3 75/3/3
f 78/2/3 61/2/3 60/2/3
f 78/3/3 76/3/3 77/3/3
f 78/3/3 60/3/3 76/3/3
f 79/3/3 19/3/3 17/3/3
f 79/2/3 77/2/3 19/2/3
f 79/2/3 78/2/3 77/2/3
f 80/2/3 61/2/3 78/2/3
f 80/2/3 78/2/3 79/2/3
f 80/3/3 65/3/3 61/3/3
f 81/3/3 79/3/3 17/3/3
f 81/3/3 80/3/3 79/3/3
f 82/3/3 65/3/3 80/3/3
f 82/3/3 80/3/3 81/3/3
f 83/3/4 84/3/4 85/3/4
f 85/3/4 84/3/4 86/3/4
f 85/2/4 86/2/4 87/2/4
f 87/2/4 86/2/4 88/2/4
f 87/3/4 88/3/4 89/3/4
f 89/3/4 88/3/4 90/3/4
f 89/2/4 90/2/4 91/2/4
f 91/2/4 90/2/4 92/2/4
f 89/2/4 91/2/4 93/2/4
f 91/1/4 92/1/4 94/1/4
f 93/2/4 91/2/4 94/2/4
f 93/1/4 94/1/4 95/1/4
f 92/2/4 90/2/4 96/2/4
f 95/1/4 94/1/4 96/1/4
f 94/1/4 92/1/4 96/1/4
f 93/1/4 95/1/4 97/1/4
f 89/2/4 93/2/4 97/2/4
f 95/2/4 96/2/4 98/2/4
f 97/1/4 95/1/4 98/1/4
f 87/3/4 89/3/4 99/3/4
f 89/2/4 97/2/4 99/2/4
f 97/2/4 98/2/4 99/2/4
f 98/2/4 96/2/4 100/2/4
f 99/2/4 98/2/4 100/2/4
f 90/3/4 88/3/4 100/3/4
f 96/2/4 90/2/4 100/2/4
f 85/2/4 87/2/4 101/2/4
f 87/3/4 99/3/4 101/3/4
f 99/3/4 100/3/4 101/3/4
f 100/3/4 88/3/4 102/3/4
f 101/3/4 100/3/4 102/3/4
f 88/2/4 86/2/4 102/2/4
f 86/3/4 84/3/4 103/3/4
f 102/2/4 86/2/4 105/2/4
f 103/3/4 104/3/4 105/3/4
f 86/3/4 103/3/4 105/3/4
f 101/2/4 102/2/4 105/2/4
f 105/3/4 104/3/4 106/3/4
f 101/2/4 105/2/4 107/2/4
f 105/2/4 106/2/4 107/2/4
f 107/2/4 106/2/4 108/2/4
f 107/3/4 108/3/4 109/3/4
f 109/3/4 108/3/4 110/3/4
f 109/2/4 110/2/4 111/2/4
f 111/2/4 110/2/4 112/2/4
f 112/2/4 110/2/4 113/2/4
f 113/2/4 110/2/4 114/2/4
f 111/1/4 112/1/4 115/1/4
f 112/2/4 113/2/4 115/2/4
f 113/1/4 114/1/4 116/1/4
f 115/2/4 113/2/4 116/2/4
f 111/1/4 115/1/4 117/1/4
f 115/1/4 116/1/4 117/1/4
f 114/2/4 110/2/4 118/2/4
f 117/1/4 116/1/4 118/1/4
f 116/1/4 114/1/4 118/1/4
f 109/2/4 111/2/4 119/2/4
f 111/1/4 117/1/4 119/1/4
f 117/2/4 118/2/4 120/2/4
f 119/1/4 117/1/4 120/1/4
f 107/3/4 109/3/4 121/3/4
f 109/2/4 119/2/4 121/2/4
f 119/2/4 120/2/4 121/2/4
f 120/2/4 118/2/4 122/2/4
f 121/2/4 120/2/4 122/2/4
f 110/3/4 108/3/4 122/3/4
f 118/2/4 110/2/4 122/2/4
f 101/2/4 107/2/4 123/2/4
f 107/3/4 121/3/4 123/3/4
f 121/3/4 122/3/4 123/3/4
f 122/3/4 108/3/4 124/3/4
f 123/3/4 122/3/4 124/3/4
f 108/2/4 106/2/4 124/2/4
f 85/2/4 101/2/4 125/2/4
f 101/2/4 123/2/4 125/2/4
f 123/2/4 124/2/4 125/2/4
f 125/2/4 124/2/4 126/2/4
f 126/2/4 124/2/4 127/2/4
f 124/2/4 106/2/4 128/2/4
f 127/2/4 124/2/4 128/2/4
f 106/3/4 104/3/4 128/3/4
f 125/3/4 126/3/4 129/3/4
f 129/3/4 126/3/4 130/3/4
f 127/3/4 128/3/4 131/3/4
f 128/3/4 104/3/4 132/3/4
f 131/3/4 128/3/4 132/3/4
f 129/2/4 130/2/4 133/2/4
f 133/2/4 130/2/4 134/2/4
f 134/2/4 130/2/4 135/2/4
f 135/2/4 130/2/4 136/2/4
f 133/1/4 134/1/4 137/1/4
f 134/2/4 135/2/4 137/2/4
f 135/1/4 136/1/4 138/1/4
f 137/2/4 135/2/4 138/2/4
f 129/2/4 133/2/4 139/2/4
f 133/1/4 137/1/4 139/1/4
f 137/1/4 138/1/4 139/1/4
f 138/1/4 136/1/4 140/1/4
f 139/1/4 138/1/4 140/1/4
f 136/2/4 130/2/4 140/2/4
f 125/3/4 129/3/4 141/3/4
f 129/2/4 139/2/4 141/2/4
f 139/2/4 140/2/4 141/2/4
f 130/3/4 126/3/4 142/3/4
f 141/2/4 140/2/4 142/2/4
f 140/2/4 130/2/4 142/2/4
f 85/2/4 125/2/4 143/2/4
f 125/3/4 141/3/4 143/3/4
f 141/3/4 142/3/4 143/3/4
f 126/2/4 127/2/4 144/2/4
f 143/3/4 142/3/4 144/3/4
f 142/3/4 126/3/4 144/3/4
f 83/3/4 85/3/4 145/3/4
f 85/2/4 143/2/4 145/2/4
f 143/2/4 144/2/4 145/2/4
f 144/2/4 127/2/4 146/2/4
f 145/2/4 144/2/4 146/2/4
f 127/3/4 131/3/4 146/3/4
f 83/3/4 145/3/4 147/3/4
f 145/3/4 146/3/4 147/3/4
f 146/3/4 131/3/4 148/3/4
f 147/3/4 146/3/4 148/3/4
f 151/3/5 150/3/5 149/3/5
f 152/3/5 150/3/5 151/3/5
f 153/3/6 154/3/6 155/3/6
f 155/3/6 154/3/6 156/3/6
f 157/3/6 158/3/6 159/3/6
f 159/3/6 158/3/6 160/3/6
f 161/3/6 162/3/6 163/3/6
f 163/3/6 162/3/6 164/3/6
