# Blender v2.80 (sub 60) OBJ File: ''
# www.blender.org
mtllib road.mtl
o road
v -62.000000 0.999990 43.127701
v -62.000000 0.000004 -43.872299
v -62.000000 -0.000010 43.127701
v -62.000000 1.000004 -43.872299
v 62.000000 -0.000010 43.127701
v 62.000000 0.000004 -43.872299
v 62.000000 0.999990 43.127701
v 62.000000 1.000004 -43.872299
v -57.000000 -0.000010 43.127701
v -62.000000 0.999990 43.127701
v -62.000000 -0.000010 43.127701
v -57.000000 0.999990 43.127701
v -55.000000 -0.000010 43.127701
v -55.000000 0.999990 43.127701
v -20.000000 -0.000010 43.127701
v -20.000000 0.999990 43.127701
v -17.000000 -0.000010 43.127701
v -17.000000 0.999990 43.127701
v 18.000000 -0.000010 43.127701
v 18.000000 0.999990 43.127701
v 21.000000 -0.000010 43.127701
v 21.000000 0.999990 43.127701
v 56.000000 -0.000010 43.127701
v 56.000000 0.999990 43.127701
v 58.000000 -0.000010 43.127701
v 58.000000 0.999990 43.127701
v 62.000000 -0.000010 43.127701
v 62.000000 0.999990 43.127701
v -62.000000 0.000004 -43.872299
v -62.000000 1.000004 -43.872299
v -57.000000 0.000004 -43.872299
v -57.000000 1.000004 -43.872299
v -55.000000 0.000004 -43.872299
v -55.000000 1.000004 -43.872299
v 56.000000 0.000004 -43.872299
v 56.000000 1.000004 -43.872299
v 58.000000 0.000004 -43.872299
v 58.000000 1.000004 -43.872299
v 62.000000 0.000004 -43.872299
v 62.000000 1.000004 -43.872299
v -20.000000 -0.000007 21.127701
v -20.000000 -0.000010 43.127701
v -55.000000 -0.000010 43.127701
v -17.000000 -0.000010 43.127701
v -17.000000 -0.000007 21.127701
v 18.000000 -0.000010 43.127701
v 18.000000 -0.000007 21.127701
v 21.000000 -0.000010 43.127701
v 21.000000 -0.000007 21.127701
v 56.000000 -0.000010 43.127701
v -20.000000 -0.000003 -0.872299
v -17.000000 -0.000003 -0.872299
v 18.000000 -0.000003 -0.872299
v 21.000000 -0.000003 -0.872299
v -20.000000 0.000001 -22.872299
v -17.000000 0.000001 -22.872299
v 18.000000 0.000001 -22.872299
v 21.000000 0.000001 -22.872299
v -62.000000 0.000004 -43.872299
v -57.000000 -0.000010 43.127701
v -62.000000 -0.000010 43.127701
v -57.000000 0.000004 -43.872299
v -55.000000 0.000004 -43.872299
v 56.000000 0.000004 -43.872299
v 58.000000 -0.000010 43.127701
v 58.000000 0.000004 -43.872299
v 62.000000 -0.000010 43.127701
v 62.000000 0.000004 -43.872299
v -55.000000 0.999990 43.127701
v -20.000000 0.999990 43.127701
v -20.000000 0.999994 21.127701
v -17.000000 0.999990 43.127701
v 18.000000 0.999990 43.127701
v -17.000000 0.999994 21.127701
v 21.000000 0.999990 43.127701
v 18.000000 0.999994 21.127701
v 56.000000 0.999990 43.127701
v 21.000000 0.999994 21.127701
v -20.000000 0.999997 -0.872299
v -17.000000 0.999997 -0.872299
v 18.000000 0.999997 -0.872299
v 21.000000 0.999997 -0.872299
v -20.000000 1.000001 -22.872299
v -17.000000 1.000001 -22.872299
v 18.000000 1.000001 -22.872299
v 21.000000 1.000001 -22.872299
v -62.000000 0.999990 43.127701
v -57.000000 0.999990 43.127701
v -62.000000 1.000004 -43.872299
v -57.000000 1.000004 -43.872299
v -55.000000 1.000004 -43.872299
v 56.000000 1.000004 -43.872299
v 58.000000 0.999990 43.127701
v 62.000000 0.999990 43.127701
v 58.000000 1.000004 -43.872299
v 62.000000 1.000004 -43.872299
vt 0.966797 0.500000
vt 0.966797 0.500000
vt 0.966797 0.500000
vt 0.966797 0.500000
vt 0.966797 0.500000
vt 0.966797 0.500000
vt 0.966797 0.500000
vt 0.966797 0.500000
vt 0.966797 0.500000
vt 0.966797 0.500000
vt 0.966797 0.500000
vt 0.966797 0.500000
vt 0.048828 0.500000
vt 0.048828 0.500000
vt 0.048828 0.500000
vt 0.048828 0.500000
vt 0.966797 0.500000
vt 0.966797 0.500000
vt 0.966797 0.500000
vt 0.966797 0.500000
vt 0.560547 0.500000
vt 0.560547 0.500000
vt 0.560547 0.500000
vt 0.560547 0.500000
vt 0.966797 0.500000
vt 0.966797 0.500000
vt 0.966797 0.500000
vt 0.966797 0.500000
vt 0.560547 0.500000
vt 0.560547 0.500000
vt 0.560547 0.500000
vt 0.560547 0.500000
vt 0.966797 0.500000
vt 0.966797 0.500000
vt 0.966797 0.500000
vt 0.966797 0.500000
vt 0.048828 0.500000
vt 0.048828 0.500000
vt 0.048828 0.500000
vt 0.048828 0.500000
vt 0.966797 0.500000
vt 0.966797 0.500000
vt 0.966797 0.500000
vt 0.966797 0.500000
vt 0.966797 0.500000
vt 0.966797 0.500000
vt 0.966797 0.500000
vt 0.966797 0.500000
vt 0.048828 0.500000
vt 0.048828 0.500000
vt 0.048828 0.500000
vt 0.048828 0.500000
vt 0.966797 0.500000
vt 0.966797 0.500000
vt 0.966797 0.500000
vt 0.966797 0.500000
vt 0.048828 0.500000
vt 0.048828 0.500000
vt 0.048828 0.500000
vt 0.048828 0.500000
vt 0.966797 0.500000
vt 0.966797 0.500000
vt 0.966797 0.500000
vt 0.966797 0.500000
vt 0.966797 0.500000
vt 0.966797 0.500000
vt 0.966797 0.500000
vt 0.560547 0.500000
vt 0.560547 0.500000
vt 0.560547 0.500000
vt 0.966797 0.500000
vt 0.966797 0.500000
vt 0.966797 0.500000
vt 0.560547 0.500000
vt 0.560547 0.500000
vt 0.560547 0.500000
vt 0.560547 0.500000
vt 0.966797 0.500000
vt 0.966797 0.500000
vt 0.966797 0.500000
vt 0.966797 0.500000
vt 0.560547 0.500000
vt 0.966797 0.500000
vt 0.966797 0.500000
vt 0.966797 0.500000
vt 0.966797 0.500000
vt 0.966797 0.500000
vt 0.560547 0.500000
vt 0.560547 0.500000
vt 0.560547 0.500000
vt 0.966797 0.500000
vt 0.560547 0.500000
vt 0.560547 0.500000
vt 0.560547 0.500000
vt 0.560547 0.500000
vt 0.966797 0.500000
vt 0.966797 0.500000
vt 0.560547 0.500000
vt 0.966797 0.500000
vt 0.966797 0.500000
vt 0.966797 0.500000
vt 0.048828 0.500000
vt 0.048828 0.500000
vt 0.048828 0.500000
vt 0.966797 0.500000
vt 0.966797 0.500000
vt 0.048828 0.500000
vt 0.966797 0.500000
vt 0.048828 0.500000
vt 0.048828 0.500000
vt 0.048828 0.500000
vt 0.966797 0.500000
vt 0.966797 0.500000
vt 0.966797 0.500000
vt 0.048828 0.500000
vt 0.966797 0.500000
vt 0.966797 0.500000
vt 0.966797 0.500000
vt 0.966797 0.500000
vt 0.560547 0.500000
vt 0.560547 0.500000
vt 0.560547 0.500000
vt 0.966797 0.500000
vt 0.966797 0.500000
vt 0.966797 0.500000
vt 0.560547 0.500000
vt 0.560547 0.500000
vt 0.560547 0.500000
vt 0.560547 0.500000
vt 0.966797 0.500000
vt 0.966797 0.500000
vt 0.966797 0.500000
vt 0.966797 0.500000
vt 0.560547 0.500000
vt 0.966797 0.500000
vt 0.966797 0.500000
vt 0.966797 0.500000
vt 0.966797 0.500000
vt 0.966797 0.500000
vt 0.560547 0.500000
vt 0.560547 0.500000
vt 0.560547 0.500000
vt 0.966797 0.500000
vt 0.560547 0.500000
vt 0.560547 0.500000
vt 0.560547 0.500000
vt 0.560547 0.500000
vt 0.966797 0.500000
vt 0.966797 0.500000
vt 0.560547 0.500000
vt 0.966797 0.500000
vt 0.966797 0.500000
vt 0.966797 0.500000
vt 0.048828 0.500000
vt 0.048828 0.500000
vt 0.048828 0.500000
vt 0.966797 0.500000
vt 0.966797 0.500000
vt 0.048828 0.500000
vt 0.966797 0.500000
vt 0.048828 0.500000
vt 0.048828 0.500000
vt 0.048828 0.500000
vt 0.966797 0.500000
vt 0.966797 0.500000
vt 0.966797 0.500000
vt 0.048828 0.500000
vt 0.966797 0.500000
vn -1.0000 0.0000 0.0000
vn 1.0000 0.0000 0.0000
vn 0.0000 0.0000 1.0000
vn 0.0000 0.0000 -1.0000
vn 0.0000 -1.0000 -0.0000
vn 0.0000 1.0000 0.0000
usemtl palette
s 1
f 1/1/1 2/2/1 3/3/1
f 4/4/1 2/2/1 1/1/1
f 5/5/2 6/6/2 7/7/2
f 7/7/2 6/6/2 8/8/2
f 9/9/3 10/10/3 11/11/3
f 12/12/3 10/10/3 9/9/3
f 13/13/3 12/14/3 9/15/3
f 14/16/3 12/14/3 13/13/3
f 15/17/3 14/18/3 13/19/3
f 16/20/3 14/18/3 15/17/3
f 17/21/3 16/22/3 15/23/3
f 18/24/3 16/22/3 17/21/3
f 19/25/3 18/26/3 17/27/3
f 20/28/3 18/26/3 19/25/3
f 21/29/3 20/30/3 19/31/3
f 22/32/3 20/30/3 21/29/3
f 23/33/3 22/34/3 21/35/3
f 24/36/3 22/34/3 23/33/3
f 25/37/3 24/38/3 23/39/3
f 26/40/3 24/38/3 25/37/3
f 27/41/3 26/42/3 25/43/3
f 28/44/3 26/42/3 27/41/3
f 29/45/4 30/46/4 31/47/4
f 31/47/4 30/46/4 32/48/4
f 31/49/4 32/50/4 33/51/4
f 33/51/4 32/50/4 34/52/4
f 33/53/4 34/54/4 35/55/4
f 35/55/4 34/54/4 36/56/4
f 35/57/4 36/58/4 37/59/4
f 37/59/4 36/58/4 38/60/4
f 37/61/4 38/62/4 39/63/4
f 39/63/4 38/62/4 40/64/4
f 41/65/5 42/66/5 43/67/5
f 41/68/5 44/69/5 42/70/5
f 45/71/5 46/72/5 44/73/5
f 45/74/5 44/69/5 41/68/5
f 47/75/5 48/76/5 46/77/5
f 47/78/5 46/72/5 45/71/5
f 49/79/5 50/80/5 48/81/5
f 49/82/5 48/76/5 47/75/5
f 51/83/5 41/65/5 43/67/5
f 51/83/5 45/71/5 41/65/5
f 51/83/5 49/79/5 47/78/5
f 51/83/5 47/78/5 45/71/5
f 52/84/5 49/79/5 51/83/5
f 53/85/5 49/79/5 52/84/5
f 54/86/5 50/80/5 49/79/5
f 54/86/5 49/79/5 53/85/5
f 55/87/5 51/83/5 43/67/5
f 55/88/5 52/89/5 51/90/5
f 56/91/5 53/85/5 52/84/5
f 56/92/5 52/89/5 55/88/5
f 57/93/5 54/94/5 53/95/5
f 57/96/5 53/85/5 56/91/5
f 58/97/5 50/80/5 54/86/5
f 58/98/5 54/94/5 57/93/5
f 59/99/5 60/100/5 61/101/5
f 62/102/5 43/103/5 60/104/5
f 62/105/5 60/100/5 59/99/5
f 63/106/5 55/87/5 43/67/5
f 63/107/5 43/103/5 62/102/5
f 63/106/5 57/96/5 56/91/5
f 63/106/5 58/97/5 57/96/5
f 63/106/5 56/91/5 55/87/5
f 64/108/5 50/80/5 58/97/5
f 64/108/5 58/97/5 63/106/5
f 64/109/5 65/110/5 50/111/5
f 66/112/5 67/113/5 65/114/5
f 66/115/5 65/110/5 64/109/5
f 68/116/5 67/113/5 66/112/5
f 69/117/6 70/118/6 71/119/6
f 70/120/6 72/121/6 71/122/6
f 72/123/6 73/124/6 74/125/6
f 71/122/6 72/121/6 74/126/6
f 73/127/6 75/128/6 76/129/6
f 74/125/6 73/124/6 76/130/6
f 75/131/6 77/132/6 78/133/6
f 76/129/6 75/128/6 78/134/6
f 69/117/6 71/119/6 79/135/6
f 71/119/6 74/125/6 79/135/6
f 76/130/6 78/133/6 79/135/6
f 74/125/6 76/130/6 79/135/6
f 79/135/6 78/133/6 80/136/6
f 80/136/6 78/133/6 81/137/6
f 78/133/6 77/132/6 82/138/6
f 81/137/6 78/133/6 82/138/6
f 69/117/6 79/135/6 83/139/6
f 79/140/6 80/141/6 83/142/6
f 80/136/6 81/137/6 84/143/6
f 83/142/6 80/141/6 84/144/6
f 81/145/6 82/146/6 85/147/6
f 84/143/6 81/137/6 85/148/6
f 82/138/6 77/132/6 86/149/6
f 85/147/6 82/146/6 86/150/6
f 87/151/6 88/152/6 89/153/6
f 88/154/6 69/155/6 90/156/6
f 89/153/6 88/152/6 90/157/6
f 69/117/6 83/139/6 91/158/6
f 90/156/6 69/155/6 91/159/6
f 84/143/6 85/148/6 91/158/6
f 85/148/6 86/149/6 91/158/6
f 83/139/6 84/143/6 91/158/6
f 86/149/6 77/132/6 92/160/6
f 91/158/6 86/149/6 92/160/6
f 77/161/6 93/162/6 92/163/6
f 93/164/6 94/165/6 95/166/6
f 92/163/6 93/162/6 95/167/6
f 95/166/6 94/165/6 96/168/6
