# MagicaVoxel @ Ephtracy

# group
g icone audio off

# material
mtllib icone audio off.mtl
usemtl palette

# normals
vn -1 0 0
vn 1 0 0
vn 0 0 1
vn 0 0 -1
vn 0 -1 0
vn 0 1 0

# texcoords
vt 0.986328 0.5
vt 0.990234 0.5

# verts
v -10 12 0.5
v -10 12 -0.5
v -10 20 0.5
v -10 20 -0.5
v -6 11 0.5
v -6 11 -0.5
v -6 12 0.5
v -6 12 -0.5
v -6 20 0.5
v -6 20 -0.5
v -6 21 0.5
v -6 21 -0.5
v -5 10 0.5
v -5 10 -0.5
v -5 11 0.5
v -5 11 -0.5
v -5 21 0.5
v -5 21 -0.5
v -5 22 0.5
v -5 22 -0.5
v -4 9 0.5
v -4 9 -0.5
v -4 10 0.5
v -4 10 -0.5
v -4 22 0.5
v -4 22 -0.5
v -4 23 0.5
v -4 23 -0.5
v -3 8 0.5
v -3 8 -0.5
v -3 9 0.5
v -3 9 -0.5
v -3 23 0.5
v -3 23 -0.5
v -3 24 0.5
v -3 24 -0.5
v -2 7 0.5
v -2 7 -0.5
v -2 8 0.5
v -2 8 -0.5
v -2 24 0.5
v -2 24 -0.5
v -2 25 0.5
v -2 25 -0.5
v -1 6 0.5
v -1 6 -0.5
v -1 7 0.5
v -1 7 -0.5
v -1 25 0.5
v -1 25 -0.5
v -1 26 0.5
v -1 26 -0.5
v 0 5 0.5
v 0 5 -0.5
v 0 6 0.5
v 0 6 -0.5
v 0 26 0.5
v 0 26 -0.5
v 0 27 0.5
v 0 27 -0.5
v 1 4 0.5
v 1 4 -0.5
v 1 5 0.5
v 1 5 -0.5
v 1 27 0.5
v 1 27 -0.5
v 1 28 0.5
v 1 28 -0.5
v 2 3 0.5
v 2 3 -0.5
v 2 4 0.5
v 2 4 -0.5
v 2 28 0.5
v 2 28 -0.5
v 2 29 0.5
v 2 29 -0.5
v 3 2 0.5
v 3 2 -0.5
v 3 3 0.5
v 3 3 -0.5
v 3 29 0.5
v 3 29 -0.5
v 3 30 0.5
v 3 30 -0.5
v 4 1 0.5
v 4 1 -0.5
v 4 2 0.5
v 4 2 -0.5
v 4 30 0.5
v 4 30 -0.5
v 4 31 0.5
v 4 31 -0.5
v 5 0 0.5
v 5 0 -0.5
v 5 1 0.5
v 5 1 -0.5
v 5 31 0.5
v 5 31 -0.5
v 5 32 0.5
v 5 32 -0.5
v 10 0 0.5
v 10 0 -0.5
v 10 32 0.5
v 10 32 -0.5
v -10 12 0.5
v -10 20 0.5
v -9 13 0.5
v -9 19 0.5
v -6 11 0.5
v -6 12 0.5
v -6 20 0.5
v -6 21 0.5
v -5 10 0.5
v -5 11 0.5
v -5 12 0.5
v -5 13 0.5
v -5 19 0.5
v -5 20 0.5
v -5 21 0.5
v -5 22 0.5
v -4 9 0.5
v -4 10 0.5
v -4 11 0.5
v -4 12 0.5
v -4 20 0.5
v -4 21 0.5
v -4 22 0.5
v -4 23 0.5
v -3 8 0.5
v -3 9 0.5
v -3 10 0.5
v -3 11 0.5
v -3 21 0.5
v -3 22 0.5
v -3 23 0.5
v -3 24 0.5
v -2 7 0.5
v -2 8 0.5
v -2 9 0.5
v -2 10 0.5
v -2 22 0.5
v -2 23 0.5
v -2 24 0.5
v -2 25 0.5
v -1 6 0.5
v -1 7 0.5
v -1 8 0.5
v -1 9 0.5
v -1 23 0.5
v -1 24 0.5
v -1 25 0.5
v -1 26 0.5
v 0 5 0.5
v 0 6 0.5
v 0 7 0.5
v 0 8 0.5
v 0 24 0.5
v 0 25 0.5
v 0 26 0.5
v 0 27 0.5
v 1 4 0.5
v 1 5 0.5
v 1 6 0.5
v 1 7 0.5
v 1 25 0.5
v 1 26 0.5
v 1 27 0.5
v 1 28 0.5
v 2 3 0.5
v 2 4 0.5
v 2 5 0.5
v 2 6 0.5
v 2 26 0.5
v 2 27 0.5
v 2 28 0.5
v 2 29 0.5
v 3 2 0.5
v 3 3 0.5
v 3 4 0.5
v 3 5 0.5
v 3 27 0.5
v 3 28 0.5
v 3 29 0.5
v 3 30 0.5
v 4 1 0.5
v 4 2 0.5
v 4 3 0.5
v 4 4 0.5
v 4 28 0.5
v 4 29 0.5
v 4 30 0.5
v 4 31 0.5
v 5 0 0.5
v 5 1 0.5
v 5 2 0.5
v 5 3 0.5
v 5 29 0.5
v 5 30 0.5
v 5 31 0.5
v 5 32 0.5
v 6 1 0.5
v 6 2 0.5
v 6 30 0.5
v 6 31 0.5
v 9 1 0.5
v 9 31 0.5
v 10 0 0.5
v 10 32 0.5
v -10 12 -0.5
v -10 20 -0.5
v -9 13 -0.5
v -9 19 -0.5
v -6 11 -0.5
v -6 12 -0.5
v -6 20 -0.5
v -6 21 -0.5
v -5 10 -0.5
v -5 11 -0.5
v -5 12 -0.5
v -5 13 -0.5
v -5 19 -0.5
v -5 20 -0.5
v -5 21 -0.5
v -5 22 -0.5
v -4 9 -0.5
v -4 10 -0.5
v -4 11 -0.5
v -4 12 -0.5
v -4 20 -0.5
v -4 21 -0.5
v -4 22 -0.5
v -4 23 -0.5
v -3 8 -0.5
v -3 9 -0.5
v -3 10 -0.5
v -3 11 -0.5
v -3 21 -0.5
v -3 22 -0.5
v -3 23 -0.5
v -3 24 -0.5
v -2 7 -0.5
v -2 8 -0.5
v -2 9 -0.5
v -2 10 -0.5
v -2 22 -0.5
v -2 23 -0.5
v -2 24 -0.5
v -2 25 -0.5
v -1 6 -0.5
v -1 7 -0.5
v -1 8 -0.5
v -1 9 -0.5
v -1 23 -0.5
v -1 24 -0.5
v -1 25 -0.5
v -1 26 -0.5
v 0 5 -0.5
v 0 6 -0.5
v 0 7 -0.5
v 0 8 -0.5
v 0 24 -0.5
v 0 25 -0.5
v 0 26 -0.5
v 0 27 -0.5
v 1 4 -0.5
v 1 5 -0.5
v 1 6 -0.5
v 1 7 -0.5
v 1 25 -0.5
v 1 26 -0.5
v 1 27 -0.5
v 1 28 -0.5
v 2 3 -0.5
v 2 4 -0.5
v 2 5 -0.5
v 2 6 -0.5
v 2 26 -0.5
v 2 27 -0.5
v 2 28 -0.5
v 2 29 -0.5
v 3 2 -0.5
v 3 3 -0.5
v 3 4 -0.5
v 3 5 -0.5
v 3 27 -0.5
v 3 28 -0.5
v 3 29 -0.5
v 3 30 -0.5
v 4 1 -0.5
v 4 2 -0.5
v 4 3 -0.5
v 4 4 -0.5
v 4 28 -0.5
v 4 29 -0.5
v 4 30 -0.5
v 4 31 -0.5
v 5 0 -0.5
v 5 1 -0.5
v 5 2 -0.5
v 5 3 -0.5
v 5 29 -0.5
v 5 30 -0.5
v 5 31 -0.5
v 5 32 -0.5
v 6 1 -0.5
v 6 2 -0.5
v 6 30 -0.5
v 6 31 -0.5
v 9 1 -0.5
v 9 31 -0.5
v 10 0 -0.5
v 10 32 -0.5
v 5 0 0.5
v 10 0 0.5
v 5 0 -0.5
v 10 0 -0.5
v 4 1 0.5
v 5 1 0.5
v 4 1 -0.5
v 5 1 -0.5
v 3 2 0.5
v 4 2 0.5
v 3 2 -0.5
v 4 2 -0.5
v 2 3 0.5
v 3 3 0.5
v 2 3 -0.5
v 3 3 -0.5
v 1 4 0.5
v 2 4 0.5
v 1 4 -0.5
v 2 4 -0.5
v 0 5 0.5
v 1 5 0.5
v 0 5 -0.5
v 1 5 -0.5
v -1 6 0.5
v 0 6 0.5
v -1 6 -0.5
v 0 6 -0.5
v -2 7 0.5
v -1 7 0.5
v -2 7 -0.5
v -1 7 -0.5
v -3 8 0.5
v -2 8 0.5
v -3 8 -0.5
v -2 8 -0.5
v -4 9 0.5
v -3 9 0.5
v -4 9 -0.5
v -3 9 -0.5
v -5 10 0.5
v -4 10 0.5
v -5 10 -0.5
v -4 10 -0.5
v -6 11 0.5
v -5 11 0.5
v -6 11 -0.5
v -5 11 -0.5
v -10 12 0.5
v -6 12 0.5
v -10 12 -0.5
v -6 12 -0.5
v -10 20 0.5
v -6 20 0.5
v -10 20 -0.5
v -6 20 -0.5
v -6 21 0.5
v -5 21 0.5
v -6 21 -0.5
v -5 21 -0.5
v -5 22 0.5
v -4 22 0.5
v -5 22 -0.5
v -4 22 -0.5
v -4 23 0.5
v -3 23 0.5
v -4 23 -0.5
v -3 23 -0.5
v -3 24 0.5
v -2 24 0.5
v -3 24 -0.5
v -2 24 -0.5
v -2 25 0.5
v -1 25 0.5
v -2 25 -0.5
v -1 25 -0.5
v -1 26 0.5
v 0 26 0.5
v -1 26 -0.5
v 0 26 -0.5
v 0 27 0.5
v 1 27 0.5
v 0 27 -0.5
v 1 27 -0.5
v 1 28 0.5
v 2 28 0.5
v 1 28 -0.5
v 2 28 -0.5
v 2 29 0.5
v 3 29 0.5
v 2 29 -0.5
v 3 29 -0.5
v 3 30 0.5
v 4 30 0.5
v 3 30 -0.5
v 4 30 -0.5
v 4 31 0.5
v 5 31 0.5
v 4 31 -0.5
v 5 31 -0.5
v 5 32 0.5
v 10 32 0.5
v 5 32 -0.5
v 10 32 -0.5

# faces
f 3/2/1 2/2/1 1/2/1
f 4/2/1 2/2/1 3/2/1
f 7/2/1 6/2/1 5/2/1
f 8/2/1 6/2/1 7/2/1
f 11/2/1 10/2/1 9/2/1
f 12/2/1 10/2/1 11/2/1
f 15/2/1 14/2/1 13/2/1
f 16/2/1 14/2/1 15/2/1
f 19/2/1 18/2/1 17/2/1
f 20/2/1 18/2/1 19/2/1
f 23/2/1 22/2/1 21/2/1
f 24/2/1 22/2/1 23/2/1
f 27/2/1 26/2/1 25/2/1
f 28/2/1 26/2/1 27/2/1
f 31/2/1 30/2/1 29/2/1
f 32/2/1 30/2/1 31/2/1
f 35/2/1 34/2/1 33/2/1
f 36/2/1 34/2/1 35/2/1
f 39/2/1 38/2/1 37/2/1
f 40/2/1 38/2/1 39/2/1
f 43/2/1 42/2/1 41/2/1
f 44/2/1 42/2/1 43/2/1
f 47/2/1 46/2/1 45/2/1
f 48/2/1 46/2/1 47/2/1
f 51/2/1 50/2/1 49/2/1
f 52/2/1 50/2/1 51/2/1
f 55/2/1 54/2/1 53/2/1
f 56/2/1 54/2/1 55/2/1
f 59/2/1 58/2/1 57/2/1
f 60/2/1 58/2/1 59/2/1
f 63/2/1 62/2/1 61/2/1
f 64/2/1 62/2/1 63/2/1
f 67/2/1 66/2/1 65/2/1
f 68/2/1 66/2/1 67/2/1
f 71/2/1 70/2/1 69/2/1
f 72/2/1 70/2/1 71/2/1
f 75/2/1 74/2/1 73/2/1
f 76/2/1 74/2/1 75/2/1
f 79/2/1 78/2/1 77/2/1
f 80/2/1 78/2/1 79/2/1
f 83/2/1 82/2/1 81/2/1
f 84/2/1 82/2/1 83/2/1
f 87/2/1 86/2/1 85/2/1
f 88/2/1 86/2/1 87/2/1
f 91/2/1 90/2/1 89/2/1
f 92/2/1 90/2/1 91/2/1
f 95/2/1 94/2/1 93/2/1
f 96/2/1 94/2/1 95/2/1
f 99/2/1 98/2/1 97/2/1
f 100/2/1 98/2/1 99/2/1
f 101/2/2 102/2/2 103/2/2
f 103/2/2 102/2/2 104/2/2
f 107/2/3 106/2/3 105/2/3
f 108/2/3 106/2/3 107/2/3
f 110/2/3 107/2/3 105/2/3
f 111/2/3 106/2/3 108/2/3
f 114/2/3 110/2/3 109/2/3
f 115/2/3 107/2/3 110/2/3
f 115/2/3 110/2/3 114/2/3
f 116/1/3 108/1/3 107/1/3
f 116/2/3 107/2/3 115/2/3
f 117/2/3 112/2/3 111/2/3
f 117/1/3 108/1/3 116/1/3
f 117/2/3 111/2/3 108/2/3
f 118/2/3 112/2/3 117/2/3
f 119/2/3 112/2/3 118/2/3
f 122/2/3 115/2/3 114/2/3
f 122/2/3 114/2/3 113/2/3
f 123/2/3 115/2/3 122/2/3
f 124/1/3 116/1/3 115/1/3
f 124/2/3 115/2/3 123/2/3
f 124/1/3 117/1/3 116/1/3
f 124/1/3 118/1/3 117/1/3
f 125/2/3 120/2/3 119/2/3
f 125/1/3 118/1/3 124/1/3
f 125/2/3 119/2/3 118/2/3
f 126/2/3 120/2/3 125/2/3
f 127/2/3 120/2/3 126/2/3
f 130/2/3 123/2/3 122/2/3
f 130/2/3 122/2/3 121/2/3
f 131/2/3 123/2/3 130/2/3
f 132/1/3 124/1/3 123/1/3
f 132/2/3 123/2/3 131/2/3
f 132/1/3 125/1/3 124/1/3
f 132/1/3 126/1/3 125/1/3
f 133/2/3 128/2/3 127/2/3
f 133/1/3 126/1/3 132/1/3
f 133/2/3 127/2/3 126/2/3
f 134/2/3 128/2/3 133/2/3
f 135/2/3 128/2/3 134/2/3
f 138/2/3 131/2/3 130/2/3
f 138/2/3 130/2/3 129/2/3
f 139/2/3 131/2/3 138/2/3
f 140/1/3 132/1/3 131/1/3
f 140/2/3 131/2/3 139/2/3
f 140/1/3 133/1/3 132/1/3
f 140/1/3 134/1/3 133/1/3
f 141/2/3 136/2/3 135/2/3
f 141/1/3 134/1/3 140/1/3
f 141/2/3 135/2/3 134/2/3
f 142/2/3 136/2/3 141/2/3
f 143/2/3 136/2/3 142/2/3
f 146/2/3 139/2/3 138/2/3
f 146/2/3 138/2/3 137/2/3
f 147/2/3 139/2/3 146/2/3
f 148/1/3 140/1/3 139/1/3
f 148/2/3 139/2/3 147/2/3
f 148/1/3 141/1/3 140/1/3
f 148/1/3 142/1/3 141/1/3
f 149/2/3 144/2/3 143/2/3
f 149/1/3 142/1/3 148/1/3
f 149/2/3 143/2/3 142/2/3
f 150/2/3 144/2/3 149/2/3
f 151/2/3 144/2/3 150/2/3
f 154/2/3 147/2/3 146/2/3
f 154/2/3 146/2/3 145/2/3
f 155/2/3 147/2/3 154/2/3
f 156/1/3 148/1/3 147/1/3
f 156/2/3 147/2/3 155/2/3
f 156/1/3 149/1/3 148/1/3
f 156/1/3 150/1/3 149/1/3
f 157/2/3 152/2/3 151/2/3
f 157/1/3 150/1/3 156/1/3
f 157/2/3 151/2/3 150/2/3
f 158/2/3 152/2/3 157/2/3
f 159/2/3 152/2/3 158/2/3
f 162/2/3 155/2/3 154/2/3
f 162/2/3 154/2/3 153/2/3
f 163/2/3 155/2/3 162/2/3
f 164/1/3 156/1/3 155/1/3
f 164/2/3 155/2/3 163/2/3
f 164/1/3 157/1/3 156/1/3
f 164/1/3 158/1/3 157/1/3
f 165/2/3 160/2/3 159/2/3
f 165/1/3 158/1/3 164/1/3
f 165/2/3 159/2/3 158/2/3
f 166/2/3 160/2/3 165/2/3
f 167/2/3 160/2/3 166/2/3
f 170/2/3 163/2/3 162/2/3
f 170/2/3 162/2/3 161/2/3
f 171/2/3 163/2/3 170/2/3
f 172/1/3 164/1/3 163/1/3
f 172/2/3 163/2/3 171/2/3
f 172/1/3 165/1/3 164/1/3
f 172/1/3 166/1/3 165/1/3
f 173/2/3 168/2/3 167/2/3
f 173/1/3 166/1/3 172/1/3
f 173/2/3 167/2/3 166/2/3
f 174/2/3 168/2/3 173/2/3
f 175/2/3 168/2/3 174/2/3
f 178/2/3 171/2/3 170/2/3
f 178/2/3 170/2/3 169/2/3
f 179/2/3 171/2/3 178/2/3
f 180/1/3 172/1/3 171/1/3
f 180/2/3 171/2/3 179/2/3
f 180/1/3 173/1/3 172/1/3
f 180/1/3 174/1/3 173/1/3
f 181/2/3 176/2/3 175/2/3
f 181/1/3 174/1/3 180/1/3
f 181/2/3 175/2/3 174/2/3
f 182/2/3 176/2/3 181/2/3
f 183/2/3 176/2/3 182/2/3
f 186/2/3 179/2/3 178/2/3
f 186/2/3 178/2/3 177/2/3
f 187/2/3 179/2/3 186/2/3
f 188/1/3 180/1/3 179/1/3
f 188/2/3 179/2/3 187/2/3
f 188/1/3 181/1/3 180/1/3
f 188/1/3 182/1/3 181/1/3
f 189/2/3 184/2/3 183/2/3
f 189/1/3 182/1/3 188/1/3
f 189/2/3 183/2/3 182/2/3
f 190/2/3 184/2/3 189/2/3
f 191/2/3 184/2/3 190/2/3
f 194/2/3 187/2/3 186/2/3
f 194/2/3 186/2/3 185/2/3
f 195/2/3 187/2/3 194/2/3
f 196/1/3 188/1/3 187/1/3
f 196/2/3 187/2/3 195/2/3
f 196/1/3 189/1/3 188/1/3
f 196/1/3 190/1/3 189/1/3
f 197/2/3 192/2/3 191/2/3
f 197/1/3 190/1/3 196/1/3
f 197/2/3 191/2/3 190/2/3
f 198/2/3 192/2/3 197/2/3
f 199/2/3 192/2/3 198/2/3
f 201/2/3 195/2/3 194/2/3
f 201/2/3 194/2/3 193/2/3
f 202/1/3 196/1/3 195/1/3
f 202/2/3 195/2/3 201/2/3
f 202/1/3 197/1/3 196/1/3
f 202/1/3 198/1/3 197/1/3
f 203/2/3 200/2/3 199/2/3
f 203/1/3 198/1/3 202/1/3
f 203/2/3 199/2/3 198/2/3
f 204/2/3 200/2/3 203/2/3
f 205/2/3 201/2/3 193/2/3
f 205/1/3 202/1/3 201/1/3
f 205/1/3 204/1/3 203/1/3
f 205/1/3 203/1/3 202/1/3
f 206/2/3 200/2/3 204/2/3
f 206/1/3 204/1/3 205/1/3
f 207/2/3 205/2/3 193/2/3
f 207/2/3 206/2/3 205/2/3
f 208/2/3 200/2/3 206/2/3
f 208/2/3 206/2/3 207/2/3
f 209/2/4 210/2/4 211/2/4
f 211/2/4 210/2/4 212/2/4
f 209/2/4 211/2/4 214/2/4
f 212/2/4 210/2/4 215/2/4
f 213/2/4 214/2/4 218/2/4
f 214/2/4 211/2/4 219/2/4
f 218/2/4 214/2/4 219/2/4
f 211/1/4 212/1/4 220/1/4
f 219/2/4 211/2/4 220/2/4
f 215/2/4 216/2/4 221/2/4
f 220/1/4 212/1/4 221/1/4
f 212/2/4 215/2/4 221/2/4
f 221/2/4 216/2/4 222/2/4
f 222/2/4 216/2/4 223/2/4
f 218/2/4 219/2/4 226/2/4
f 217/2/4 218/2/4 226/2/4
f 226/2/4 219/2/4 227/2/4
f 219/1/4 220/1/4 228/1/4
f 227/2/4 219/2/4 228/2/4
f 220/1/4 221/1/4 228/1/4
f 221/1/4 222/1/4 228/1/4
f 223/2/4 224/2/4 229/2/4
f 228/1/4 222/1/4 229/1/4
f 222/2/4 223/2/4 229/2/4
f 229/2/4 224/2/4 230/2/4
f 230/2/4 224/2/4 231/2/4
f 226/2/4 227/2/4 234/2/4
f 225/2/4 226/2/4 234/2/4
f 234/2/4 227/2/4 235/2/4
f 227/1/4 228/1/4 236/1/4
f 235/2/4 227/2/4 236/2/4
f 228/1/4 229/1/4 236/1/4
f 229/1/4 230/1/4 236/1/4
f 231/2/4 232/2/4 237/2/4
f 236/1/4 230/1/4 237/1/4
f 230/2/4 231/2/4 237/2/4
f 237/2/4 232/2/4 238/2/4
f 238/2/4 232/2/4 239/2/4
f 234/2/4 235/2/4 242/2/4
f 233/2/4 234/2/4 242/2/4
f 242/2/4 235/2/4 243/2/4
f 235/1/4 236/1/4 244/1/4
f 243/2/4 235/2/4 244/2/4
f 236/1/4 237/1/4 244/1/4
f 237/1/4 238/1/4 244/1/4
f 239/2/4 240/2/4 245/2/4
f 244/1/4 238/1/4 245/1/4
f 238/2/4 239/2/4 245/2/4
f 245/2/4 240/2/4 246/2/4
f 246/2/4 240/2/4 247/2/4
f 242/2/4 243/2/4 250/2/4
f 241/2/4 242/2/4 250/2/4
f 250/2/4 243/2/4 251/2/4
f 243/1/4 244/1/4 252/1/4
f 251/2/4 243/2/4 252/2/4
f 244/1/4 245/1/4 252/1/4
f 245/1/4 246/1/4 252/1/4
f 247/2/4 248/2/4 253/2/4
f 252/1/4 246/1/4 253/1/4
f 246/2/4 247/2/4 253/2/4
f 253/2/4 248/2/4 254/2/4
f 254/2/4 248/2/4 255/2/4
f 250/2/4 251/2/4 258/2/4
f 249/2/4 250/2/4 258/2/4
f 258/2/4 251/2/4 259/2/4
f 251/1/4 252/1/4 260/1/4
f 259/2/4 251/2/4 260/2/4
f 252/1/4 253/1/4 260/1/4
f 253/1/4 254/1/4 260/1/4
f 255/2/4 256/2/4 261/2/4
f 260/1/4 254/1/4 261/1/4
f 254/2/4 255/2/4 261/2/4
f 261/2/4 256/2/4 262/2/4
f 262/2/4 256/2/4 263/2/4
f 258/2/4 259/2/4 266/2/4
f 257/2/4 258/2/4 266/2/4
f 266/2/4 259/2/4 267/2/4
f 259/1/4 260/1/4 268/1/4
f 267/2/4 259/2/4 268/2/4
f 260/1/4 261/1/4 268/1/4
f 261/1/4 262/1/4 268/1/4
f 263/2/4 264/2/4 269/2/4
f 268/1/4 262/1/4 269/1/4
f 262/2/4 263/2/4 269/2/4
f 269/2/4 264/2/4 270/2/4
f 270/2/4 264/2/4 271/2/4
f 266/2/4 267/2/4 274/2/4
f 265/2/4 266/2/4 274/2/4
f 274/2/4 267/2/4 275/2/4
f 267/1/4 268/1/4 276/1/4
f 275/2/4 267/2/4 276/2/4
f 268/1/4 269/1/4 276/1/4
f 269/1/4 270/1/4 276/1/4
f 271/2/4 272/2/4 277/2/4
f 276/1/4 270/1/4 277/1/4
f 270/2/4 271/2/4 277/2/4
f 277/2/4 272/2/4 278/2/4
f 278/2/4 272/2/4 279/2/4
f 274/2/4 275/2/4 282/2/4
f 273/2/4 274/2/4 282/2/4
f 282/2/4 275/2/4 283/2/4
f 275/1/4 276/1/4 284/1/4
f 283/2/4 275/2/4 284/2/4
f 276/1/4 277/1/4 284/1/4
f 277/1/4 278/1/4 284/1/4
f 279/2/4 280/2/4 285/2/4
f 284/1/4 278/1/4 285/1/4
f 278/2/4 279/2/4 285/2/4
f 285/2/4 280/2/4 286/2/4
f 286/2/4 280/2/4 287/2/4
f 282/2/4 283/2/4 290/2/4
f 281/2/4 282/2/4 290/2/4
f 290/2/4 283/2/4 291/2/4
f 283/1/4 284/1/4 292/1/4
f 291/2/4 283/2/4 292/2/4
f 284/1/4 285/1/4 292/1/4
f 285/1/4 286/1/4 292/1/4
f 287/2/4 288/2/4 293/2/4
f 292/1/4 286/1/4 293/1/4
f 286/2/4 287/2/4 293/2/4
f 293/2/4 288/2/4 294/2/4
f 294/2/4 288/2/4 295/2/4
f 290/2/4 291/2/4 298/2/4
f 289/2/4 290/2/4 298/2/4
f 298/2/4 291/2/4 299/2/4
f 291/1/4 292/1/4 300/1/4
f 299/2/4 291/2/4 300/2/4
f 292/1/4 293/1/4 300/1/4
f 293/1/4 294/1/4 300/1/4
f 295/2/4 296/2/4 301/2/4
f 300/1/4 294/1/4 301/1/4
f 294/2/4 295/2/4 301/2/4
f 301/2/4 296/2/4 302/2/4
f 302/2/4 296/2/4 303/2/4
f 298/2/4 299/2/4 305/2/4
f 297/2/4 298/2/4 305/2/4
f 299/1/4 300/1/4 306/1/4
f 305/2/4 299/2/4 306/2/4
f 300/1/4 301/1/4 306/1/4
f 301/1/4 302/1/4 306/1/4
f 303/2/4 304/2/4 307/2/4
f 306/1/4 302/1/4 307/1/4
f 302/2/4 303/2/4 307/2/4
f 307/2/4 304/2/4 308/2/4
f 297/2/4 305/2/4 309/2/4
f 305/1/4 306/1/4 309/1/4
f 307/1/4 308/1/4 309/1/4
f 306/1/4 307/1/4 309/1/4
f 308/2/4 304/2/4 310/2/4
f 309/1/4 308/1/4 310/1/4
f 297/2/4 309/2/4 311/2/4
f 309/2/4 310/2/4 311/2/4
f 310/2/4 304/2/4 312/2/4
f 311/2/4 310/2/4 312/2/4
f 315/2/5 314/2/5 313/2/5
f 316/2/5 314/2/5 315/2/5
f 319/2/5 318/2/5 317/2/5
f 320/2/5 318/2/5 319/2/5
f 323/2/5 322/2/5 321/2/5
f 324/2/5 322/2/5 323/2/5
f 327/2/5 326/2/5 325/2/5
f 328/2/5 326/2/5 327/2/5
f 331/2/5 330/2/5 329/2/5
f 332/2/5 330/2/5 331/2/5
f 335/2/5 334/2/5 333/2/5
f 336/2/5 334/2/5 335/2/5
f 339/2/5 338/2/5 337/2/5
f 340/2/5 338/2/5 339/2/5
f 343/2/5 342/2/5 341/2/5
f 344/2/5 342/2/5 343/2/5
f 347/2/5 346/2/5 345/2/5
f 348/2/5 346/2/5 347/2/5
f 351/2/5 350/2/5 349/2/5
f 352/2/5 350/2/5 351/2/5
f 355/2/5 354/2/5 353/2/5
f 356/2/5 354/2/5 355/2/5
f 359/2/5 358/2/5 357/2/5
f 360/2/5 358/2/5 359/2/5
f 363/2/5 362/2/5 361/2/5
f 364/2/5 362/2/5 363/2/5
f 365/2/6 366/2/6 367/2/6
f 367/2/6 366/2/6 368/2/6
f 369/2/6 370/2/6 371/2/6
f 371/2/6 370/2/6 372/2/6
f 373/2/6 374/2/6 375/2/6
f 375/2/6 374/2/6 376/2/6
f 377/2/6 378/2/6 379/2/6
f 379/2/6 378/2/6 380/2/6
f 381/2/6 382/2/6 383/2/6
f 383/2/6 382/2/6 384/2/6
f 385/2/6 386/2/6 387/2/6
f 387/2/6 386/2/6 388/2/6
f 389/2/6 390/2/6 391/2/6
f 391/2/6 390/2/6 392/2/6
f 393/2/6 394/2/6 395/2/6
f 395/2/6 394/2/6 396/2/6
f 397/2/6 398/2/6 399/2/6
f 399/2/6 398/2/6 400/2/6
f 401/2/6 402/2/6 403/2/6
f 403/2/6 402/2/6 404/2/6
f 405/2/6 406/2/6 407/2/6
f 407/2/6 406/2/6 408/2/6
f 409/2/6 410/2/6 411/2/6
f 411/2/6 410/2/6 412/2/6
f 413/2/6 414/2/6 415/2/6
f 415/2/6 414/2/6 416/2/6
