# MagicaVoxel @ Ephtracy

# material
mtllib road1.mtl
usemtl palette

# normals
vn -1 0 0
vn 1 0 0
vn 0 0 1
vn 0 0 -1
vn 0 -1 0
vn 0 1 0

# texcoords
vt 0.0488281 0.5
vt 0.560547 0.5
vt 0.966797 0.5

# verts
v -54 0 62
v -54 0 31
v -54 0 -0
v -54 0 -31
v -54 0 -62
v -54 1 62
v -54 1 31
v -54 1 -0
v -54 1 -31
v -54 1 -62
v 62 0 62
v 62 0 -62
v 62 1 62
v 62 1 -62
v -54 0 62
v -54 1 62
v -51 0 62
v -51 1 62
v -2 0 62
v -2 1 62
v 1 0 62
v 1 1 62
v 53 0 62
v 53 1 62
v 56 0 62
v 56 1 62
v 62 0 62
v 62 1 62
v -54 0 -62
v -54 1 -62
v 53 0 -62
v 53 1 -62
v 56 0 -62
v 56 1 -62
v 62 0 -62
v 62 1 -62
v -54 0 62
v -51 0 62
v -2 0 62
v 1 0 62
v 53 0 62
v 56 0 62
v 62 0 62
v -54 0 31
v -51 0 31
v -2 0 31
v 1 0 31
v -54 0 -0
v -51 0 -0
v -2 0 -0
v 1 0 -0
v -54 0 -31
v -51 0 -31
v -2 0 -31
v 1 0 -31
v -54 0 -62
v 53 0 -62
v 56 0 -62
v 62 0 -62
v -54 1 62
v -51 1 62
v -2 1 62
v 1 1 62
v 53 1 62
v 56 1 62
v 62 1 62
v -54 1 31
v -51 1 31
v -2 1 31
v 1 1 31
v -54 1 -0
v -51 1 -0
v -2 1 -0
v 1 1 -0
v -54 1 -31
v -51 1 -31
v -2 1 -31
v 1 1 -31
v -54 1 -62
v 53 1 -62
v 56 1 -62
v 62 1 -62

# faces
f 6/2/1 2/2/1 1/2/1
f 7/3/1 3/3/1 2/3/1
f 7/2/1 2/2/1 6/2/1
f 8/2/1 4/2/1 3/2/1
f 8/3/1 3/3/1 7/3/1
f 9/3/1 5/3/1 4/3/1
f 9/2/1 4/2/1 8/2/1
f 10/3/1 5/3/1 9/3/1
f 11/3/2 12/3/2 13/3/2
f 13/3/2 12/3/2 14/3/2
f 17/2/3 16/2/3 15/2/3
f 18/2/3 16/2/3 17/2/3
f 19/3/3 18/3/3 17/3/3
f 20/3/3 18/3/3 19/3/3
f 21/2/3 20/2/3 19/2/3
f 22/2/3 20/2/3 21/2/3
f 23/3/3 22/3/3 21/3/3
f 24/3/3 22/3/3 23/3/3
f 25/1/3 24/1/3 23/1/3
f 26/1/3 24/1/3 25/1/3
f 27/3/3 26/3/3 25/3/3
f 28/3/3 26/3/3 27/3/3
f 29/3/4 30/3/4 31/3/4
f 31/3/4 30/3/4 32/3/4
f 31/1/4 32/1/4 33/1/4
f 33/1/4 32/1/4 34/1/4
f 33/3/4 34/3/4 35/3/4
f 35/3/4 34/3/4 36/3/4
f 44/2/5 38/2/5 37/2/5
f 45/3/5 39/3/5 38/3/5
f 45/2/5 38/2/5 44/2/5
f 46/2/5 40/2/5 39/2/5
f 46/3/5 39/3/5 45/3/5
f 47/3/5 41/3/5 40/3/5
f 47/2/5 40/2/5 46/2/5
f 48/3/5 45/3/5 44/3/5
f 48/3/5 46/3/5 45/3/5
f 48/3/5 47/3/5 46/3/5
f 49/3/5 47/3/5 48/3/5
f 50/3/5 47/3/5 49/3/5
f 51/3/5 41/3/5 47/3/5
f 51/3/5 47/3/5 50/3/5
f 52/2/5 49/2/5 48/2/5
f 53/3/5 50/3/5 49/3/5
f 53/2/5 49/2/5 52/2/5
f 54/2/5 51/2/5 50/2/5
f 54/3/5 50/3/5 53/3/5
f 55/3/5 41/3/5 51/3/5
f 55/2/5 51/2/5 54/2/5
f 56/3/5 54/3/5 53/3/5
f 56/3/5 53/3/5 52/3/5
f 56/3/5 55/3/5 54/3/5
f 57/1/5 42/1/5 41/1/5
f 57/3/5 55/3/5 56/3/5
f 57/3/5 41/3/5 55/3/5
f 58/3/5 43/3/5 42/3/5
f 58/1/5 42/1/5 57/1/5
f 59/3/5 43/3/5 58/3/5
f 60/2/6 61/2/6 67/2/6
f 61/3/6 62/3/6 68/3/6
f 67/2/6 61/2/6 68/2/6
f 62/2/6 63/2/6 69/2/6
f 68/3/6 62/3/6 69/3/6
f 63/3/6 64/3/6 70/3/6
f 69/2/6 63/2/6 70/2/6
f 67/3/6 68/3/6 71/3/6
f 68/3/6 69/3/6 71/3/6
f 69/3/6 70/3/6 71/3/6
f 71/3/6 70/3/6 72/3/6
f 72/3/6 70/3/6 73/3/6
f 70/3/6 64/3/6 74/3/6
f 73/3/6 70/3/6 74/3/6
f 71/2/6 72/2/6 75/2/6
f 72/3/6 73/3/6 76/3/6
f 75/2/6 72/2/6 76/2/6
f 73/2/6 74/2/6 77/2/6
f 76/3/6 73/3/6 77/3/6
f 74/3/6 64/3/6 78/3/6
f 77/2/6 74/2/6 78/2/6
f 76/3/6 77/3/6 79/3/6
f 75/3/6 76/3/6 79/3/6
f 77/3/6 78/3/6 79/3/6
f 64/1/6 65/1/6 80/1/6
f 79/3/6 78/3/6 80/3/6
f 78/3/6 64/3/6 80/3/6
f 65/3/6 66/3/6 81/3/6
f 80/1/6 65/1/6 81/1/6
f 81/3/6 66/3/6 82/3/6
